<svg width="19" height="18" viewBox="0 0 19 18" fill="none" xmlns="http://www.w3.org/2000/svg">
<path d="M2.85493 2H16.7883L15.8357 1H3.67573L2.85493 2ZM18.4805 2.23C18.7744 2.57 18.9467 3 18.9467 3.5V16C18.9467 16.5304 18.7331 17.0391 18.3531 17.4142C17.973 17.7893 17.4575 18 16.92 18H2.73333C2.19583 18 1.68034 17.7893 1.30026 17.4142C0.920188 17.0391 0.706665 16.5304 0.706665 16V3.5C0.706665 3 0.878932 2.57 1.1728 2.23L2.5712 0.55C2.85493 0.21 3.2704 0 3.74667 0H15.9067C16.3829 0 16.7984 0.21 17.072 0.55L18.4805 2.23ZM3.74667 15H9.82666V12H3.74667V15Z" fill="#F5EDED"/>
</svg>
