<svg width="24" height="24" viewBox="0 0 24 24" fill="none" xmlns="http://www.w3.org/2000/svg">
<g clip-path="url(#clip0_220_1910)">
<path d="M22.5 2.24791L16.4948 2.24793V0.752831C16.4948 0.338359 16.1591 0.00265503 15.7448 0.00265503C15.3304 0.00265503 14.9948 0.338359 14.9948 0.752831V2.24756H8.99475V0.752831C8.99475 0.338359 8.65913 0.00265503 8.24475 0.00265503C7.83038 0.00265503 7.49475 0.338359 7.49475 0.752831V2.24756H1.5C0.671625 2.24756 0 2.91934 0 3.74791V22.5023C0 23.3309 0.671625 24.0027 1.5 24.0027H22.5C23.3284 24.0027 24 23.3309 24 22.5023V3.74791C24 2.91969 23.3284 2.24791 22.5 2.24791ZM22.5 22.5023H1.5V3.74791H7.49475V4.50371C7.49475 4.91816 7.83038 5.25389 8.24475 5.25389C8.65913 5.25389 8.99475 4.91816 8.99475 4.50371V3.74828H14.9948V4.50409C14.9948 4.91856 15.3304 5.25426 15.7448 5.25426C16.1591 5.25426 16.4948 4.91856 16.4948 4.50409V3.74828H22.5V22.5023ZM17.25 12.0002H18.75C19.164 12.0002 19.5 11.6641 19.5 11.25V9.74967C19.5 9.33557 19.164 8.99949 18.75 8.99949H17.25C16.836 8.99949 16.5 9.33557 16.5 9.74967V11.25C16.5 11.6641 16.836 12.0002 17.25 12.0002ZM17.25 18.0012H18.75C19.164 18.0012 19.5 17.6655 19.5 17.2511V15.7507C19.5 15.3366 19.164 15.0005 18.75 15.0005H17.25C16.836 15.0005 16.5 15.3366 16.5 15.7507V17.2511C16.5 17.6659 16.836 18.0012 17.25 18.0012ZM12.75 15.0005H11.25C10.836 15.0005 10.5 15.3366 10.5 15.7507V17.2511C10.5 17.6655 10.836 18.0012 11.25 18.0012H12.75C13.164 18.0012 13.5 17.6655 13.5 17.2511V15.7507C13.5 15.337 13.164 15.0005 12.75 15.0005ZM12.75 8.99949H11.25C10.836 8.99949 10.5 9.33557 10.5 9.74967V11.25C10.5 11.6641 10.836 12.0002 11.25 12.0002H12.75C13.164 12.0002 13.5 11.6641 13.5 11.25V9.74967C13.5 9.33519 13.164 8.99949 12.75 8.99949ZM6.75 8.99949H5.25C4.836 8.99949 4.5 9.33557 4.5 9.74967V11.25C4.5 11.6641 4.836 12.0002 5.25 12.0002H6.75C7.164 12.0002 7.5 11.6641 7.5 11.25V9.74967C7.5 9.33519 7.164 8.99949 6.75 8.99949ZM6.75 15.0005H5.25C4.836 15.0005 4.5 15.3366 4.5 15.7507V17.2511C4.5 17.6655 4.836 18.0012 5.25 18.0012H6.75C7.164 18.0012 7.5 17.6655 7.5 17.2511V15.7507C7.5 15.337 7.164 15.0005 6.75 15.0005Z" fill="#F5EDED"/>
</g>
<defs>
<clipPath id="clip0_220_1910">
<rect width="24" height="24" fill="white"/>
</clipPath>
</defs>
</svg>
