<svg width="25" height="24" viewBox="0 0 25 24" fill="none" xmlns="http://www.w3.org/2000/svg">
<path d="M12.3866 1C6.78796 1 2.2533 3.28722 2.2533 6.11111V18.8889C2.2533 21.7128 6.80063 24 12.3866 24C17.9726 24 22.52 21.7128 22.52 18.8889V6.11111C22.52 3.28722 17.9853 1 12.3866 1ZM19.9866 18.8889C19.9866 19.5278 17.2886 21.4444 12.3866 21.4444C7.48463 21.4444 4.78663 19.5278 4.78663 18.8889V16.0394C6.82596 17.0361 9.49863 17.6111 12.3866 17.6111C15.2746 17.6111 17.9473 17.0361 19.9866 16.0394V18.8889ZM19.9866 13.075C18.34 14.2889 15.452 15.0556 12.3866 15.0556C9.3213 15.0556 6.4333 14.2889 4.78663 13.075V9.48444C6.64863 10.545 9.3593 11.2222 12.3866 11.2222C15.414 11.2222 18.1246 10.545 19.9866 9.48444V13.075ZM12.3866 8.66667C7.48463 8.66667 4.78663 6.75 4.78663 6.11111C4.78663 5.47222 7.48463 3.55556 12.3866 3.55556C17.2886 3.55556 19.9866 5.47222 19.9866 6.11111C19.9866 6.75 17.2886 8.66667 12.3866 8.66667Z" fill="#F5EDED"/>
</svg>
