<svg width="29" height="29" viewBox="0 0 29 29" fill="none" xmlns="http://www.w3.org/2000/svg">
<path fill-rule="evenodd" clip-rule="evenodd" d="M15.775 8.39138L18.1248 6.04161C19.0625 5.10387 19.5314 4.635 20.0881 4.50543C20.3863 4.43601 20.6966 4.43601 20.9948 4.50543C21.5515 4.635 22.0204 5.10387 22.9581 6.04161C23.8958 6.97935 24.3647 7.44822 24.4943 8.0049C24.5637 8.30316 24.5637 8.61339 24.4943 8.91165C24.3647 9.46833 23.8958 9.9372 22.9581 10.8749L20.6352 13.1978C18.6203 12.0405 16.9473 10.3801 15.775 8.39138ZM14.3206 9.84574L5.68948 18.4769C5.26442 18.902 5.05189 19.1145 4.91216 19.3756C4.77242 19.6367 4.71348 19.9314 4.59559 20.5209L3.77186 24.6395C3.70534 24.9721 3.67208 25.1384 3.76668 25.233C3.86129 25.3276 4.0276 25.2944 4.36021 25.2279L8.47886 24.4041L8.47888 24.4041C9.06831 24.2862 9.36304 24.2273 9.62413 24.0876C9.88523 23.9478 10.0978 23.7353 10.5228 23.3102L19.1771 14.6559C17.2131 13.4343 15.5544 11.7871 14.3206 9.84574Z" fill="#F5F7FA"/>
</svg>
