<svg width="25" height="23" viewBox="0 0 25 23" fill="none" xmlns="http://www.w3.org/2000/svg">
<path d="M15.2954 12.1053H14.0994V10.8948C14.0994 10.5737 13.9734 10.2658 13.7491 10.0388C13.5248 9.81176 13.2206 9.68423 12.9034 9.68423C12.5862 9.68423 12.282 9.81176 12.0577 10.0388C11.8334 10.2658 11.7074 10.5737 11.7074 10.8948V12.1053H10.5114C10.1942 12.1053 9.88995 12.2328 9.66566 12.4598C9.44137 12.6868 9.31536 12.9947 9.31536 13.3158C9.31536 13.6369 9.44137 13.9448 9.66566 14.1718C9.88995 14.3988 10.1942 14.5263 10.5114 14.5263H11.7074V15.7369C11.7074 16.0579 11.8334 16.3658 12.0577 16.5928C12.282 16.8198 12.5862 16.9474 12.9034 16.9474C13.2206 16.9474 13.5248 16.8198 13.7491 16.5928C13.9734 16.3658 14.0994 16.0579 14.0994 15.7369V14.5263H15.2954C15.6126 14.5263 15.9168 14.3988 16.1411 14.1718C16.3654 13.9448 16.4914 13.6369 16.4914 13.3158C16.4914 12.9947 16.3654 12.6868 16.1411 12.4598C15.9168 12.2328 15.6126 12.1053 15.2954 12.1053ZM21.2754 3.6316H13.7645L13.3818 2.42108C13.1336 1.71078 12.6734 1.09616 12.0648 0.662379C11.4563 0.228596 10.7295 -0.0028773 9.98512 2.69991e-05H4.53136C3.57976 2.69991e-05 2.66714 0.382638 1.99426 1.06369C1.32138 1.74474 0.943359 2.66845 0.943359 3.6316V19.3684C0.943359 20.3316 1.32138 21.2553 1.99426 21.9363C2.66714 22.6174 3.57976 23 4.53136 23H21.2754C22.227 23 23.1396 22.6174 23.8125 21.9363C24.4853 21.2553 24.8634 20.3316 24.8634 19.3684V7.26318C24.8634 6.30002 24.4853 5.37632 23.8125 4.69527C23.1396 4.01421 22.227 3.6316 21.2754 3.6316ZM22.4714 19.3684C22.4714 19.6895 22.3454 19.9974 22.1211 20.2244C21.8968 20.4514 21.5926 20.579 21.2754 20.579H4.53136C4.21416 20.579 3.90995 20.4514 3.68566 20.2244C3.46137 19.9974 3.33536 19.6895 3.33536 19.3684V3.6316C3.33536 3.31055 3.46137 3.00265 3.68566 2.77563C3.90995 2.54861 4.21416 2.42108 4.53136 2.42108H9.98512C10.2359 2.42042 10.4804 2.49954 10.6843 2.64725C10.8882 2.79497 11.0411 3.0038 11.1213 3.24423L11.7672 5.2295C11.8474 5.46993 12.0003 5.67876 12.2041 5.82647C12.408 5.97419 12.6526 6.05331 12.9034 6.05265H21.2754C21.5926 6.05265 21.8968 6.18019 22.1211 6.40721C22.3454 6.63422 22.4714 6.94213 22.4714 7.26318V19.3684Z" fill="#F5EDED"/>
</svg>
