<svg width="25" height="24" viewBox="0 0 25 24" fill="none" xmlns="http://www.w3.org/2000/svg">
<path d="M16.2375 22.71L11.0375 17.61L12.7504 15.93L16.2375 19.35L23.1504 12.57L24.8634 14.25L16.2375 22.71ZM22.9669 10.8H20.5198V4.8H18.0728V8.4H5.83748V4.8H3.39042V21.6H10.7316V24H3.39042C2.71748 24 2.1416 23.7652 1.66279 23.2956C1.18399 22.826 0.944175 22.2608 0.943359 21.6V4.8C0.943359 4.14 1.18317 3.5752 1.66279 3.1056C2.14242 2.636 2.71829 2.4008 3.39042 2.4H8.49865C8.72297 1.7 9.1614 1.1252 9.81395 0.6756C10.4665 0.226 11.1802 0.0008 11.9551 0C12.7708 0 13.5 0.2252 14.1428 0.6756C14.7856 1.126 15.2187 1.7008 15.4422 2.4H20.5198C21.1928 2.4 21.7691 2.6352 22.2487 3.1056C22.7283 3.576 22.9677 4.1408 22.9669 4.8V10.8ZM11.9551 4.8C12.3018 4.8 12.5926 4.6848 12.8275 4.4544C13.0624 4.224 13.1795 3.9392 13.1787 3.6C13.1778 3.2608 13.0604 2.976 12.8263 2.7456C12.5922 2.5152 12.3018 2.4 11.9551 2.4C11.6085 2.4 11.3181 2.5152 11.084 2.7456C10.8499 2.976 10.7324 3.2608 10.7316 3.6C10.7308 3.9392 10.8482 4.2244 11.084 4.4556C11.3197 4.6868 11.6101 4.8016 11.9551 4.8Z" fill="#F5EDED"/>
</svg>
