<svg width="289" height="295" viewBox="0 0 289 295" fill="none" xmlns="http://www.w3.org/2000/svg">
<path d="M232.818 222.541C245.224 242.075 251.071 252.446 251.071 263.264C251.071 284.629 235.203 294.988 213.827 294.988C204.404 294.988 198.322 294.976 182.949 286.979C182.949 286.979 172.989 277.864 149.68 278.8C126.153 277.87 116.186 287.093 116.186 287.093C100.814 295.085 94.9488 295 85.5381 295C64.1616 295 48.2818 284.653 48.2818 263.277C48.2818 252.458 54.1468 242.099 66.5475 222.553C66.5475 222.553 89.9897 183.624 110.303 165.31C124.981 152.094 146.382 152.142 146.382 152.142H152.984C152.984 152.142 175.32 152.082 189.08 165.31C208.765 184.288 232.818 222.547 232.818 222.541ZM97.4555 126.108C119.804 126.108 137.919 97.8763 137.919 63.0542C137.919 28.2321 119.804 0 97.4555 0C75.1065 0 56.9918 28.2321 56.9918 63.0542C56.9918 97.8763 75.1065 126.108 97.4555 126.108ZM58.677 187.175C75.1488 179.571 78.9058 152.607 67.0609 126.948C55.216 101.289 32.263 86.6474 15.7912 94.2461C-0.680552 101.845 -4.43155 128.814 7.40735 154.473C19.2523 180.132 42.2053 194.768 58.677 187.175ZM191.532 126.108C213.881 126.108 232.002 97.8763 232.002 63.0542C232.002 28.2321 213.881 0 191.532 0C169.184 0 151.069 28.2321 151.069 63.0542C151.069 97.8763 169.184 126.108 191.532 126.108ZM273.203 94.24C256.725 86.6354 233.778 101.277 221.933 126.942C210.088 152.607 213.845 179.571 230.323 187.175C246.801 194.774 269.748 180.132 281.593 154.473C293.438 128.814 289.681 101.845 273.203 94.24Z" fill="white"/>
<path d="M134 176C134 167.716 140.716 161 149 161V161C157.284 161 164 167.716 164 176V221C164 229.284 157.284 236 149 236V236C140.716 236 134 229.284 134 221V176Z" fill="#E02424"/>
<path d="M135 255.5C135 247.492 141.492 241 149.5 241V241C157.508 241 164 247.492 164 255.5V255.5C164 263.508 157.508 270 149.5 270V270C141.492 270 135 263.508 135 255.5V255.5Z" fill="#E02424"/>
</svg>
