<svg width="288" height="295" viewBox="0 0 288 295" fill="none" xmlns="http://www.w3.org/2000/svg">
<path d="M232.319 222.541C244.726 242.075 250.573 252.446 250.573 263.264C250.573 284.629 234.705 294.988 213.328 294.988C203.906 294.988 197.823 294.976 182.451 286.979C182.451 286.979 172.49 277.864 149.181 278.8C125.654 277.87 115.688 287.093 115.688 287.093C100.315 295.085 94.4501 295 85.0394 295C63.663 295 47.7831 284.653 47.7831 263.277C47.7831 252.458 53.6482 242.099 66.0489 222.553C66.0489 222.553 89.4911 183.624 109.804 165.31C124.482 152.094 145.883 152.142 145.883 152.142H152.485C152.485 152.142 174.822 152.082 188.581 165.31C208.267 184.288 232.319 222.547 232.319 222.541ZM96.9568 126.108C119.306 126.108 137.421 97.8763 137.421 63.0542C137.421 28.2321 119.306 0 96.9568 0C74.6079 0 56.4932 28.2321 56.4932 63.0542C56.4932 97.8763 74.6079 126.108 96.9568 126.108ZM58.1784 187.175C74.6502 179.571 78.4072 152.607 66.5623 126.948C54.7173 101.289 31.7644 86.6474 15.2926 94.2461C-1.17918 101.845 -4.93018 128.814 6.90872 154.473C18.7537 180.132 41.7066 194.768 58.1784 187.175ZM191.034 126.108C213.383 126.108 231.504 97.8763 231.504 63.0542C231.504 28.2321 213.383 0 191.034 0C168.685 0 150.57 28.2321 150.57 63.0542C150.57 97.8763 168.685 126.108 191.034 126.108ZM272.704 94.24C256.226 86.6354 233.279 101.277 221.434 126.942C209.589 152.607 213.347 179.571 229.824 187.175C246.302 194.774 269.249 180.132 281.094 154.473C292.939 128.814 289.182 101.845 272.704 94.24Z" fill="white"/>
<path d="M150 245V225.649C150 218.095 154.834 211.389 162 209V209C169.166 206.611 174 199.905 174 192.351V188.246C174 175.407 163.593 165 150.754 165H150C136.745 165 126 175.745 126 189V189" stroke="#33363F" stroke-width="17"/>
<circle cx="149.833" cy="263.833" r="9.83333" fill="#33363F" stroke="#33363F"/>
</svg>
