<svg width="29" height="29" viewBox="0 0 29 29" fill="none" xmlns="http://www.w3.org/2000/svg">
<path fill-rule="evenodd" clip-rule="evenodd" d="M25.3751 7.25H3.62507V10.875C4.01217 10.875 4.20573 10.875 4.36753 10.9017C5.2129 11.0413 5.87545 11.7038 6.01502 12.5492C6.04174 12.711 6.04174 12.9046 6.04174 13.2917V19.375C6.04174 22.2034 6.04174 23.6176 6.92042 24.4963C7.79909 25.375 9.21331 25.375 12.0417 25.375H16.9584C19.7868 25.375 21.201 25.375 22.0797 24.4963C22.9584 23.6176 22.9584 22.2034 22.9584 19.375V13.2917C22.9584 12.9046 22.9584 12.711 22.9851 12.5492C23.1247 11.7038 23.7872 11.0413 24.6326 10.9017C24.7944 10.875 24.988 10.875 25.3751 10.875V7.25ZM12.4792 13.2917C12.4792 12.7394 12.0315 12.2917 11.4792 12.2917C10.927 12.2917 10.4792 12.7394 10.4792 13.2917V19.3333C10.4792 19.8856 10.927 20.3333 11.4792 20.3333C12.0315 20.3333 12.4792 19.8856 12.4792 19.3333V13.2917ZM18.5209 13.2917C18.5209 12.7394 18.0732 12.2917 17.5209 12.2917C16.9686 12.2917 16.5209 12.7394 16.5209 13.2917V19.3333C16.5209 19.8856 16.9686 20.3333 17.5209 20.3333C18.0732 20.3333 18.5209 19.8856 18.5209 19.3333V13.2917Z" fill="white"/>
<path d="M12.1657 4.0728C12.3034 3.94433 12.6068 3.83081 13.0288 3.74985C13.4509 3.66889 13.968 3.625 14.5 3.625C15.032 3.625 15.5491 3.66889 15.9712 3.74985C16.3932 3.83081 16.6966 3.94433 16.8343 4.0728" stroke="white" stroke-width="2" stroke-linecap="round"/>
</svg>
