<svg width="17" height="16" viewBox="0 0 17 16" fill="none" xmlns="http://www.w3.org/2000/svg">
<path d="M8.80003 0C9.87504 0 10.906 0.421427 11.6662 1.17157C12.4263 1.92172 12.8534 2.93913 12.8534 4C12.8534 5.06087 12.4263 6.07828 11.6662 6.82843C10.906 7.57857 9.87504 8 8.80003 8C7.72502 8 6.69403 7.57857 5.93389 6.82843C5.17374 6.07828 4.74669 5.06087 4.74669 4C4.74669 2.93913 5.17374 1.92172 5.93389 1.17157C6.69403 0.421427 7.72502 0 8.80003 0ZM8.80003 10C13.279 10 16.9067 11.79 16.9067 14V16H0.693359V14C0.693359 11.79 4.32109 10 8.80003 10Z" fill="#F5EDED"/>
</svg>
